<mxfile host="app.diagrams.net" modified="2024-01-09T18:08:43.212Z" agent="Mozilla/5.0 (Windows NT 10.0; Win64; x64) AppleWebKit/537.36 (KHTML, like Gecko) Chrome/120.0.0.0 Safari/537.36" version="22.1.17" etag="8bTv0x4I4n_09XwVEJ-F" type="github">
  <diagram name="Page-1" id="jdqvwYb_fqkYoPG9fmT0">
    <mxGraphModel>
      <root>
        <mxCell id="0" />
        <mxCell id="1" parent="0" />
      </root>
    </mxGraphModel>
  </diagram>
</mxfile>
